<svg xmlns="http://www.w3.org/2000/svg" width="224" height="168" viewBox="0 0 224 168">
  <defs>
    <filter id="joint-shadow" filterUnits="userSpaceOnUse" x="0" y="0" width="224" height="168" color-interpolation-filters="sRGB">
      <feDropShadow dx="0" dy="2" stdDeviation="1.2" flood-color="#1d1d1b" flood-opacity=".18"/>
    </filter>
    <mask id="digit-mask" maskUnits="userSpaceOnUse" x="0" y="0" width="224" height="168">
      <path d="M126 44C132 31 144 26 161 26C181 26 194 37 194 52C194 68 181 78 161 78C182 78 195 88 195 104C195 121 181 132 161 132C143 132 130 126 124 113" fill="none" stroke="#fff" stroke-width="27" stroke-linecap="round" stroke-linejoin="round"/>
    </mask>
    <pattern id="dots" width="18" height="18" patternUnits="userSpaceOnUse" patternTransform="rotate(-12)">
      <circle cx="5" cy="5" r="3.6" fill="#fffdf6"/>
    </pattern>
  </defs>
  <g transform="translate(4 0)">
<g fill="none" stroke-width="27" stroke-linecap="round" stroke-linejoin="round">
      <g>
        <path d="M45 26C61 26 73 38 73 54V102C73 118 61 130 45 130S17 118 17 102V54C17 38 29 26 45 26Z" stroke="#1d1d1b" stroke-width="35" />
        <path d="M45 26C61 26 73 38 73 54V102C73 118 61 130 45 130S17 118 17 102V54C17 38 29 26 45 26Z" stroke="#fffdf6" />
      </g>
      <g filter="url(#joint-shadow)">
        <path d="M45 26C61 26 73 38 73 54V102C73 118 61 130 45 130" stroke="#1d1d1b" stroke-width="35" />
        <path d="M45 26C61 26 73 38 73 54V102C73 118 61 130 45 130" stroke="#eeede7" />
      </g>
    </g>
    <g transform="translate(-6 0)" fill="none" stroke-linecap="round" stroke-linejoin="round">
      <path d="M126 44C132 31 144 26 161 26C181 26 194 37 194 52C194 68 181 78 161 78C182 78 195 88 195 104C195 121 181 132 161 132C143 132 130 126 124 113" stroke="#1d1d1b" stroke-width="35"/>
      <path d="M126 44C132 31 144 26 161 26C181 26 194 37 194 52C194 68 181 78 161 78C182 78 195 88 195 104C195 121 181 132 161 132C143 132 130 126 124 113" stroke="#48aa63" stroke-width="27"/>
      <g mask="url(#digit-mask)"><path d="M108 0H224V168H108Z" fill="url(#dots)" stroke="none"/></g>
    </g>
  </g>
</svg>
